<svg xmlns="http://www.w3.org/2000/svg" id="Layer_1" viewBox="0 0 574.28 175.402"><g><path id="Path_1" d="M53.657 8.437C64.288 2.223 76.534-.67 88.822.131c5.604.198 9.986 4.901 9.788 10.505-.001.036-.003.073-.004.109-.198 5.604-4.901 9.986-10.505 9.788-.036-.001-.073-.003-.109-.004h-.461c-21.782-1.384-39.78 1.2-53.716 6.184 5.722-7.753 11.537-13.475 19.844-18.275" style="fill: #f09f54;"/><path id="Path_2" d="M33.167 96.58c-.738-1.015-1.384-2.123-2.031-3.138-12.151-20.874-11.107-46.897 2.677-66.73-43.01 15.413-46.886 53.716-.646 69.868" style="fill: #ee7623;"/><path id="Path_3" d="M85.13 103.872c5.633.186 10.048 4.902 9.863 10.535-.177 5.372-4.491 9.686-9.863 9.863-10.913.07-21.648-2.765-31.104-8.214-9.968-5.722-14.029-10.706-20.859-19.475 13.198 4.615 30.458 7.384 51.963 7.291" style="fill: #d15e14;"/><path id="Path_4" d="M108.573 59.477c-10.631-6.215-22.877-9.107-35.165-8.307-5.658.357-9.956 5.233-9.599 10.891s5.233 9.956 10.891 9.599h0c21.782-1.384 39.78 1.2 53.716 6.184-5.722-7.753-11.537-13.475-19.844-18.367" style="fill: #00758d;"/><path id="Path_5" d="M129.063 147.712c.712-1.004 1.36-2.052 1.938-3.138 12.104-20.885 11.061-46.881-2.677-66.73 43.102 15.321 46.979 53.716.738 69.868" style="fill: #008aab;"/><path id="Path_6" d="M77.1 155.004c-5.631-.23-10.382 4.149-10.611 9.78-.23 5.631 4.149 10.382 9.78 10.611.062.003.123.004.185.006h.646c10.88.037 21.577-2.797 31.012-8.214 9.968-5.722 14.029-10.706 20.859-19.475-13.106 4.615-30.365 7.384-51.87 7.291" style="fill: #00bed6;"/></g><path d="M220.175 62.136c-6.611-2.285-12.963-4.57-12.963-10.082.0-4.436 4.408-7.259 10.889-7.259 6.87.0 12.573 3.226 16.851 6.855 3.111 2.42 5.833 1.882 8.296-1.075l4.018-4.975c2.593-3.092 1.556-6.049-1.426-8.469-6.61-5.915-16.462-9.947-28.128-9.947-19.055.0-32.147 10.754-32.147 26.079.0 16.4 14.388 23.256 26.184 27.021 10.111 3.227 17.758 4.032 17.758 10.889.0 4.84-4.926 8.065-12.833 8.065-7 0-15.684-3.898-20.869-9.007-2.981-2.554-5.704-1.882-8.296 1.076l-4.148 5.108c-2.592 2.957-1.814 5.914.907 8.603 7.648 7.931 20.091 12.771 33.572 12.771 18.406.0 33.443-9.41 33.443-26.752.0-19.627-16.722-24.331-31.11-28.902zm82.426-34.951c-26.443.0-46.406 19.358-46.406 45.303s19.963 45.303 46.406 45.303 46.405-19.492 46.405-45.303c0-25.945-20.092-45.303-46.405-45.303zm0 70.71c-13.74.0-24.629-10.62-24.629-25.407.0-14.922 10.888-25.407 24.629-25.407s24.628 10.485 24.628 25.407c0 14.787-10.888 25.407-24.628 25.407zM409.168 98.163H377.71V34.846c0-3.898-1.945-6.05-5.704-6.05h-9.852c-3.629.0-5.702 2.152-5.702 6.05v75.415c0 3.764 2.073 5.915 5.702 5.915h47.013c3.63.0 5.704-2.151 5.704-5.915v-6.184c0-3.898-2.073-5.915-5.704-5.915zM527.875 27.185c-26.443.0-46.405 19.358-46.405 45.303s19.962 45.303 46.405 45.303 46.405-19.492 46.405-45.303c0-25.945-20.092-45.303-46.405-45.303zm0 70.71c-13.739.0-24.627-10.62-24.627-25.407.0-14.922 10.888-25.407 24.627-25.407s24.629 10.485 24.629 25.407c0 14.787-10.888 25.407-24.629 25.407zM489.837 9.725h-9.593c-3.759.0-6.351 1.883-8.036 5.915l-28.334 68.812-16.203-41.54c-2.203-5.511-4.667-9.947-8.426-12.636-2.981-2.151-6.48-3.092-11.277-3.092h-13.383c-3.759.0-5.833 2.017-5.833 5.916v7.769c0 3.764 2.074 5.914 5.833 5.914h10.268c.318.0.62.049.912.163 1.037.268 1.686 1.21 2.333 2.823l27.739 61.3c1.944 4.033 3.889 5.78 7.389 5.78h1.296c3.63.0 5.575-1.747 7.389-5.78l42.721-95.429c1.814-3.898-1.037-5.915-4.796-5.915z" style="fill: #555960;"/><path d="M200.398 145.378c.769-.412 1.372-.965 1.81-1.663.438-.697.657-1.484.657-2.36.0-1.001-.246-1.878-.738-2.629-.492-.75-1.185-1.336-2.079-1.757-.894-.42-1.931-.63-3.112-.63h-7.779v19.179h7.939c1.306.0 2.446-.228 3.42-.684.974-.457 1.734-1.104 2.28-1.945.545-.84.818-1.815.818-2.924.0-1.073-.286-2.003-.858-2.79-.573-.787-1.359-1.386-2.36-1.797zM192.78 139.369h3.943c.786.0 1.399.21 1.837.631s.657.997.657 1.731c0 .769-.219 1.372-.657 1.81s-1.051.657-1.837.657h-3.943v-4.828zM199.204 151.775c-.51.474-1.203.711-2.079.711h-4.346v-5.311h4.346c.876.0 1.569.228 2.079.684.509.457.764 1.096.764 1.918.0.859-.255 1.525-.764 1.998zm13.589-9.737c-.528.17-1.019.457-1.475.859s-.827.962-1.113 1.676v-2.548h-3.514v13.492h3.541v-5.74c0-1.645.353-2.848 1.06-3.607.706-.76 1.667-1.14 2.883-1.14h.725v-3.245h-.564c-.501.0-1.015.085-1.542.254zM216.95 155.517h3.541v-13.492h-3.541v13.492zM218.72 135.533c-.626.0-1.145.201-1.556.603-.412.403-.617.899-.617 1.489.0.573.205 1.064.617 1.475.411.412.93.617 1.556.617s1.144-.205 1.556-.617c.411-.412.617-.903.617-1.475.0-.59-.206-1.086-.617-1.489-.412-.402-.93-.603-1.556-.603zM231.513 141.595c-.751.0-1.516.197-2.293.59-.778.394-1.373 1.126-1.784 2.199v-2.36h-3.514v13.492h3.541v-6.572c0-1.556.304-2.678.912-3.366.608-.689 1.305-1.033 2.092-1.033.733.0 1.31.264 1.73.791.42.528.631 1.319.631 2.373v7.806h3.541v-8.154c0-1.86-.434-3.287-1.301-4.278-.868-.993-2.052-1.489-3.554-1.489zm17.988 2.227c-.412-.679-.966-1.221-1.663-1.623s-1.529-.603-2.495-.603c-1.162.0-2.226.304-3.192.912-.965.608-1.739 1.44-2.32 2.495s-.872 2.262-.872 3.621c0 1.377.282 2.589.845 3.635.563 1.047 1.328 1.861 2.293 2.442.965.581 2.029.871 3.192.871.948.0 1.774-.182 2.481-.549.706-.367 1.274-.863 1.703-1.489v.51c0 1.306-.362 2.33-1.086 3.071s-1.721 1.113-2.991 1.113c-1.52.0-2.816-.573-3.89-1.717l-1.878 2.388c.697.715 1.574 1.27 2.629 1.662 1.055.394 2.173.59 3.353.59 1.466.0 2.754-.304 3.862-.912s1.976-1.458 2.602-2.548c.625-1.091.939-2.369.939-3.836v-11.829h-3.514v1.797zM249.474 150.259c-.25.716-.67 1.288-1.261 1.717-.59.429-1.261.644-2.012.644-1.073.0-1.936-.37-2.588-1.112-.653-.742-.979-1.704-.979-2.884.0-1.162.322-2.137.965-2.924s1.484-1.181 2.521-1.181c1.001.0 1.811.394 2.428 1.181s.925 1.842.925 3.165v1.395zM256.405 155.517h3.541v-13.492h-3.541v13.492zM258.175 135.533c-.626.0-1.145.201-1.556.603-.412.403-.617.899-.617 1.489.0.573.205 1.064.617 1.475.411.412.93.617 1.556.617s1.144-.205 1.556-.617c.411-.412.617-.903.617-1.475.0-.59-.206-1.086-.617-1.489-.412-.402-.93-.603-1.556-.603zM270.967 141.595c-.751.0-1.516.197-2.293.59-.778.394-1.373 1.126-1.784 2.199v-2.36h-3.514v13.492h3.541v-6.572c0-1.556.304-2.678.912-3.366.608-.689 1.305-1.033 2.092-1.033.733.0 1.31.264 1.73.791.42.528.631 1.319.631 2.373v7.806h3.541v-8.154c0-1.86-.434-3.287-1.301-4.278-.868-.993-2.052-1.489-3.554-1.489zm17.988 2.227c-.412-.679-.966-1.221-1.663-1.623s-1.529-.603-2.495-.603c-1.162.0-2.226.304-3.192.912-.965.608-1.739 1.44-2.32 2.495s-.872 2.262-.872 3.621c0 1.377.282 2.589.845 3.635.563 1.047 1.328 1.861 2.293 2.442.965.581 2.029.871 3.192.871.948.0 1.774-.182 2.481-.549.706-.367 1.274-.863 1.703-1.489v.51c0 1.306-.362 2.33-1.086 3.071-.724.742-1.721 1.113-2.991 1.113-1.52.0-2.816-.573-3.89-1.717l-1.878 2.388c.697.715 1.574 1.27 2.629 1.662 1.055.394 2.173.59 3.353.59 1.466.0 2.754-.304 3.862-.912s1.976-1.458 2.602-2.548c.625-1.091.939-2.369.939-3.836v-11.829h-3.514v1.797zM288.928 150.259c-.25.716-.67 1.288-1.261 1.717-.59.429-1.261.644-2.012.644-1.073.0-1.936-.37-2.588-1.112-.653-.742-.979-1.704-.979-2.884.0-1.162.322-2.137.965-2.924s1.484-1.181 2.521-1.181c1.001.0 1.811.394 2.428 1.181s.925 1.842.925 3.165v1.395zm25.107-13.92-4.56 8.261-4.533-8.261h-4.265l6.894 11.372v7.806h3.621v-7.779l6.894-11.4h-4.05zM328.107 142.508c-1.064-.608-2.293-.912-3.688-.912s-2.62.304-3.675.912-1.882 1.453-2.481 2.535c-.6 1.081-.899 2.32-.899 3.715s.299 2.633.899 3.715c.599 1.081 1.426 1.931 2.481 2.548s2.28.925 3.675.925 2.624-.309 3.688-.925c1.064-.617 1.9-1.467 2.508-2.548.608-1.082.912-2.32.912-3.715s-.304-2.634-.912-3.715c-.608-1.082-1.444-1.927-2.508-2.535zM326.899 151.815c-.635.788-1.462 1.181-2.481 1.181-1.001.0-1.815-.393-2.441-1.181-.626-.787-.939-1.806-.939-3.057.0-1.234.312-2.244.939-3.031.625-.787 1.439-1.181 2.441-1.181 1.019.0 1.846.394 2.481 1.181s.952 1.797.952 3.031c0 1.252-.318 2.271-.952 3.057zm16.111-1.126c-.232.698-.617 1.256-1.154 1.676s-1.136.631-1.797.631c-.733.0-1.31-.246-1.73-.738-.42-.491-.63-1.22-.63-2.185v-8.048h-3.541v8.423c0 1.789.438 3.152 1.314 4.09.876.939 2.047 1.409 3.514 1.409.894.0 1.685-.188 2.374-.563.688-.376 1.248-.903 1.676-1.583v1.717h3.514v-13.492h-3.541v8.664zM361.115 141.595c-2.235.0-4.158.716-5.767 2.146l1.851 2.119c1.109-1.037 2.307-1.556 3.594-1.556.965.0 1.726.246 2.28.738s.849 1.184.885 2.079h-2.843c-1.949.0-3.469.393-4.56 1.18-1.091.788-1.636 1.869-1.636 3.246.0 1.305.451 2.365 1.355 3.178.903.814 2.097 1.221 3.581 1.221.912.0 1.734-.183 2.467-.55.733-.367 1.332-.872 1.797-1.516v1.636h3.112v-8.289c0-1.717-.554-3.084-1.663-4.103-1.109-1.02-2.593-1.53-4.453-1.53zM363.958 151.145c-.268.662-.693 1.194-1.274 1.596-.581.403-1.248.604-1.999.604-.68.0-1.225-.179-1.636-.537-.411-.357-.617-.822-.617-1.395.0-.644.259-1.144.778-1.502s1.234-.537 2.146-.537h2.602v1.77zM393.679 150.984l-3.89-14.645h-3.245l-3.863 14.431-3.299-14.431h-3.89l5.096 19.179h3.89l3.648-13.814 3.648 13.814h3.916l5.07-19.179h-3.755l-3.326 14.645zm18.653-8.476c-1.064-.608-2.293-.912-3.688-.912s-2.62.304-3.675.912-1.882 1.453-2.481 2.535c-.6 1.081-.899 2.32-.899 3.715s.299 2.633.899 3.715c.599 1.081 1.426 1.931 2.481 2.548s2.28.925 3.675.925 2.624-.309 3.688-.925c1.064-.617 1.9-1.467 2.508-2.548.608-1.082.912-2.32.912-3.715s-.304-2.634-.912-3.715c-.608-1.082-1.444-1.927-2.508-2.535zM411.125 151.815c-.635.788-1.462 1.181-2.481 1.181-1.001.0-1.815-.393-2.441-1.181-.626-.787-.939-1.806-.939-3.057.0-1.234.312-2.244.939-3.031.625-.787 1.439-1.181 2.441-1.181 1.019.0 1.846.394 2.481 1.181s.952 1.797.952 3.031c0 1.252-.318 2.271-.952 3.057zM424.569 142.038c-.528.17-1.019.457-1.475.859s-.827.962-1.113 1.676v-2.548h-3.514v13.492h3.541v-5.74c0-1.645.353-2.848 1.06-3.607.706-.76 1.667-1.14 2.883-1.14h.725v-3.245h-.564c-.501.0-1.015.085-1.542.254zM428.726 155.517h3.541v-19.313h-3.541v19.313zm16.813-11.775c-.429-.661-.992-1.184-1.69-1.569-.697-.385-1.511-.577-2.441-.577-1.162.0-2.226.304-3.192.912-.965.608-1.739 1.448-2.32 2.521-.581 1.073-.872 2.316-.872 3.729s.286 2.66.858 3.741c.573 1.082 1.337 1.927 2.293 2.535s2.016.912 3.179.912c.929.0 1.757-.193 2.481-.577s1.301-.898 1.73-1.542v1.69h3.514v-19.313h-3.541v7.538zM445.539 150.608c-.232.716-.644 1.292-1.234 1.73-.59.439-1.27.658-2.039.658-1.073.0-1.936-.398-2.588-1.194-.653-.795-.979-1.81-.979-3.044.0-1.216.317-2.222.952-3.018.635-.795 1.471-1.194 2.508-1.194 1.001.0 1.815.389 2.441 1.167s.939 1.829.939 3.152v1.744zM468.433 142.508c-1.064-.608-2.293-.912-3.688-.912s-2.62.304-3.675.912-1.882 1.453-2.481 2.535c-.6 1.081-.899 2.32-.899 3.715s.299 2.633.899 3.715c.599 1.081 1.426 1.931 2.481 2.548s2.28.925 3.675.925 2.624-.309 3.688-.925c1.064-.617 1.9-1.467 2.508-2.548.608-1.082.912-2.32.912-3.715s-.304-2.634-.912-3.715c-.608-1.082-1.444-1.927-2.508-2.535zM467.226 151.815c-.635.788-1.462 1.181-2.481 1.181-1.001.0-1.815-.393-2.441-1.181-.626-.787-.939-1.806-.939-3.057.0-1.234.312-2.244.939-3.031.625-.787 1.439-1.181 2.441-1.181 1.019.0 1.846.394 2.481 1.181s.952 1.797.952 3.031c0 1.252-.318 2.271-.952 3.057zm8.243-11.829v2.039h-2.146v2.843h2.146v10.649h3.541v-10.649h3.165v-2.843h-3.165v-1.556c0-.536.102-.921.308-1.154.205-.232.55-.349 1.033-.349h1.824v-2.763h-3.084c-2.414.0-3.621 1.261-3.621 3.782zM504.116 136.339h-14.807v3.111h5.606v16.068h3.594V139.45h5.606v-3.111zM509.65 141.595c-2.235.0-4.158.716-5.767 2.146l1.851 2.119c1.109-1.037 2.307-1.556 3.594-1.556.965.0 1.726.246 2.28.738s.849 1.184.885 2.079h-2.843c-1.949.0-3.469.393-4.56 1.18-1.091.788-1.636 1.869-1.636 3.246.0 1.305.451 2.365 1.355 3.178.903.814 2.097 1.221 3.581 1.221.912.0 1.734-.183 2.467-.55.733-.367 1.332-.872 1.797-1.516v1.636h3.112v-8.289c0-1.717-.554-3.084-1.663-4.103-1.109-1.02-2.593-1.53-4.453-1.53zM512.493 151.145c-.268.662-.693 1.194-1.274 1.596-.581.403-1.248.604-1.999.604-.68.0-1.225-.179-1.636-.537-.411-.357-.617-.822-.617-1.395.0-.644.259-1.144.778-1.502s1.234-.537 2.146-.537h2.602v1.77zM519.084 155.517h3.541v-19.313h-3.541v19.313zm16.37-13.009c-.957-.608-2.052-.912-3.286-.912-1.306.0-2.468.313-3.487.939s-1.824 1.48-2.414 2.562c-.59 1.082-.885 2.312-.885 3.688.0 1.395.313 2.634.939 3.715.625 1.082 1.493 1.927 2.602 2.535 1.109.608 2.396.912 3.862.912 1.127.0 2.177-.201 3.152-.603s1.82-.988 2.535-1.757l-1.851-2.173c-.948 1.163-2.182 1.744-3.702 1.744-1.091.0-1.963-.296-2.615-.885-.653-.59-1.069-1.404-1.247-2.441h9.469v-1.181c0-1.358-.273-2.571-.818-3.635-.546-1.064-1.297-1.9-2.253-2.508zM529.057 147.577c.143-1.001.478-1.788 1.006-2.36.527-.573 1.211-.859 2.052-.859.822.0 1.484.278 1.985.832.501.555.805 1.351.912 2.388h-5.955zm19.857-5.982c-.751.0-1.516.197-2.293.59-.778.394-1.373 1.126-1.784 2.199v-2.36h-3.514v13.492h3.541v-6.572c0-1.556.304-2.678.912-3.366.608-.689 1.305-1.033 2.092-1.033.733.0 1.31.264 1.73.791.42.528.631 1.319.631 2.373v7.806h3.541v-8.154c0-1.86-.434-3.287-1.301-4.278-.868-.993-2.052-1.489-3.554-1.489zm13.849 11.025c-.858.0-1.287-.464-1.287-1.395v-6.357h3.084v-2.843h-3.084v-3.567h-3.541v3.567h-2.146v2.843h2.146v6.974c0 2.45 1.189 3.675 3.568 3.675h3.192v-2.897h-1.931z" style="fill: #008aab;"/></svg>